<svg id="Layer_2" data-name="Layer 2" xmlns="http://www.w3.org/2000/svg" viewBox="0 0 1920 1920"><defs><style>.cls-1,.cls-2,.cls-3{fill:none;}.cls-1,.cls-2,.cls-3,.cls-4,.cls-5,.cls-6{stroke:#000;stroke-linejoin:round;}.cls-1,.cls-3{stroke-linecap:round;}.cls-1{stroke-width:51.35px;}.cls-2{stroke-width:22.19px;}.cls-3{stroke-width:50.18px;}.cls-4{fill:#8c251c;}.cls-4,.cls-5,.cls-6{stroke-width:23.87px;}.cls-5{fill:#d96236;}.cls-6{fill:#f2bb9b;}.cls-7{fill:#fff6eb;}</style></defs><polyline class="cls-1" points="1750.28 935.72 1318.96 1513.89 601.04 1513.89 169.72 935.72"/><line class="cls-2" x1="1621.83" y1="1014.58" x2="1249.34" y2="1513.89"/><line class="cls-2" x1="1562.19" y1="1014.58" x2="1189.7" y2="1513.89"/><line class="cls-2" x1="1510.35" y1="1007.47" x2="1137.87" y2="1506.78"/><line class="cls-2" x1="1450.13" y1="1007.47" x2="1077.64" y2="1506.78"/><line class="cls-2" x1="1396.48" y1="1007.47" x2="1023.99" y2="1506.78"/><line class="cls-2" x1="292.35" y1="1014.58" x2="664.83" y2="1513.89"/><line class="cls-2" x1="348.93" y1="1014.58" x2="721.41" y2="1513.89"/><line class="cls-2" x1="400.76" y1="1007.47" x2="773.25" y2="1506.78"/><line class="cls-2" x1="460.99" y1="1007.47" x2="833.48" y2="1506.78"/><line class="cls-2" x1="514.64" y1="1007.47" x2="887.13" y2="1506.78"/><polyline class="cls-3" points="1691.44 1014.58 1323 1014.58 957.1 1505.05 955.6 1507.06 955.39 1506.78 588.21 1014.58 228.56 1014.58"/><polygon class="cls-4" points="1180.39 1052.99 1180.39 507.55 1062.16 406.23 1062.16 1059.11 1180.39 1052.99"/><rect class="cls-5" x="859.58" y="405.39" width="202.58" height="664.65"/><polygon class="cls-6" points="859.58 1042.29 859.58 406.23 730.72 496.84 730.72 1048.4 859.58 1042.29"/><path class="cls-7" d="M955.42,1340a28.68,28.68,0,0,1-23.2-11.64L736.15,1065.54a32.64,32.64,0,0,1-5.88-26.39,33.14,33.14,0,0,1,15.83-22,418.29,418.29,0,0,1,418.74.42,33.19,33.19,0,0,1,15.81,22,32.62,32.62,0,0,1-5.88,26.35L978.61,1328.39A28.7,28.7,0,0,1,955.42,1340Z"/><path d="M955.11,972.67a404,404,0,0,1,204,54.82,21.62,21.62,0,0,1,6.51,31.57l-100.16,134-96,128.45a17.49,17.49,0,0,1-28,0L845.57,1193,745.35,1058.67a21.6,21.6,0,0,1,6.5-31.59,404.07,404.07,0,0,1,203.26-54.41m0-22.95a427,427,0,0,0-214.77,57.51A44.54,44.54,0,0,0,727,1072.4l100.22,134.35L923,1335.25a40.42,40.42,0,0,0,64.77,0l96-128.45,100.16-134a44.56,44.56,0,0,0-13.35-65.15,427.11,427.11,0,0,0-215.5-57.93Z"/><path d="M955.42,1340a28.68,28.68,0,0,1-23.2-11.64l-89.36-119.79a181.92,181.92,0,0,1,225.25.05l-89.5,119.75A28.7,28.7,0,0,1,955.42,1340Z"/><path d="M955.46,1181a170.25,170.25,0,0,1,96.56,30l-82.6,110.52a17.49,17.49,0,0,1-28,0L859,1211a170.22,170.22,0,0,1,96.5-29.93m0-23a192.63,192.63,0,0,0-128.28,48.66L923,1335.25a40.42,40.42,0,0,0,64.77,0l96-128.45a192.63,192.63,0,0,0-128.34-48.72Z"/></svg>